<?xml version="1.0" encoding="UTF-8"?>
<svg xmlns="http://www.w3.org/2000/svg" xmlns:xlink="http://www.w3.org/1999/xlink" width="24pt" height="24pt" viewBox="0 0 24 24" version="1.1">
<g id="surface1">
<path style=" stroke:none;fill-rule:nonzero;fill:rgb(100%,100%,100%);fill-opacity:1;" d="M 10 20 L 5 20 L 5 22 L 10 22 L 10 24 L 13 21 L 10 18 Z M 14 20 L 14 22 L 19 22 L 19 20 Z M 12 8 C 13.101562 8 14 7.101562 14 6 C 14 4.898438 13.101562 4 12 4 C 10.898438 4 10.011719 4.898438 10.011719 6 C 10.011719 7.101562 10.898438 8 12 8 Z M 17 0 L 7 0 C 5.898438 0 5 0.898438 5 2 L 5 16 C 5 17.101562 5.898438 18 7 18 L 17 18 C 18.101562 18 19 17.101562 19 16 L 19 2 C 19 0.898438 18.101562 0 17 0 Z M 7 2 L 17 2 L 17 12.5 C 17 10.828125 13.671875 10 12 10 C 10.328125 10 7 10.828125 7 12.5 Z M 7 2 "/>
</g>
</svg>
