<?xml version="1.0" encoding="UTF-8"?>
<svg xmlns="http://www.w3.org/2000/svg" xmlns:xlink="http://www.w3.org/1999/xlink" width="32pt" height="32pt" viewBox="0 0 32 32" version="1.1">
<g id="surface1">
<path style=" stroke:none;fill-rule:nonzero;fill:rgb(100%,100%,100%);fill-opacity:1;" d="M 20.265625 16 C 20.265625 18.355469 18.355469 20.265625 16 20.265625 C 13.644531 20.265625 11.734375 18.355469 11.734375 16 C 11.734375 13.644531 13.644531 11.734375 16 11.734375 C 18.355469 11.734375 20.265625 13.644531 20.265625 16 Z M 20.265625 16 "/>
<path style=" stroke:none;fill-rule:nonzero;fill:rgb(100%,100%,100%);fill-opacity:1;" d="M 12 2.667969 L 9.558594 5.332031 L 5.332031 5.332031 C 3.867188 5.332031 2.667969 6.535156 2.667969 8 L 2.667969 24 C 2.667969 25.464844 3.867188 26.667969 5.332031 26.667969 L 26.667969 26.667969 C 28.132812 26.667969 29.332031 25.464844 29.332031 24 L 29.332031 8 C 29.332031 6.535156 28.132812 5.332031 26.667969 5.332031 L 22.441406 5.332031 L 20 2.667969 Z M 16 22.667969 C 12.320312 22.667969 9.332031 19.679688 9.332031 16 C 9.332031 12.320312 12.320312 9.332031 16 9.332031 C 19.679688 9.332031 22.667969 12.320312 22.667969 16 C 22.667969 19.679688 19.679688 22.667969 16 22.667969 Z M 16 22.667969 "/>
</g>
</svg>
