<?xml version="1.0" encoding="UTF-8"?>
<svg xmlns="http://www.w3.org/2000/svg" xmlns:xlink="http://www.w3.org/1999/xlink" width="40pt" height="40pt" viewBox="0 0 40 40" version="1.1">
<g id="surface1">
<path style=" stroke:none;fill-rule:nonzero;fill:rgb(100%,100%,100%);fill-opacity:1;" d="M 27.972656 25.734375 C 26.960938 26.984375 25.5 26.703125 24.058594 26.703125 C 21.988281 26.703125 19.917969 26.703125 17.847656 26.703125 C 16.5625 26.703125 15.28125 26.703125 14.003906 26.703125 C 12.203125 26.703125 11.988281 25.023438 12.007812 23.484375 C 12.820312 23.484375 13.640625 23.484375 14.457031 23.484375 C 14.679688 23.484375 14.828125 23.386719 14.925781 23.253906 C 15.078125 23.085938 15.132812 22.847656 14.96875 22.597656 C 13.769531 20.738281 12.570312 18.875 11.367188 17.011719 C 11.125 16.632812 10.589844 16.636719 10.347656 17.015625 C 9.144531 18.878906 7.945312 20.738281 6.742188 22.601562 C 6.5 22.976562 6.820312 23.484375 7.25 23.484375 C 8.054688 23.484375 8.863281 23.484375 9.667969 23.484375 C 9.65625 25.296875 9.828125 27.136719 11.492188 28.253906 C 13.046875 29.296875 14.925781 29.054688 16.710938 29.054688 C 19.15625 29.054688 21.597656 29.054688 24.039062 29.054688 C 26.136719 29.054688 28.171875 29.207031 29.65625 27.394531 C 30.605469 26.226562 28.9375 24.558594 27.972656 25.734375 Z M 27.972656 25.734375 "/>
<path style=" stroke:none;fill-rule:nonzero;fill:rgb(100%,100%,100%);fill-opacity:1;" d="M 32.894531 15.800781 C 32.101562 15.800781 31.304688 15.800781 30.507812 15.800781 C 30.515625 13.988281 30.347656 12.148438 28.679688 11.03125 C 27.128906 9.992188 25.242188 10.226562 23.460938 10.226562 C 21.019531 10.226562 18.574219 10.226562 16.132812 10.226562 C 14.039062 10.226562 11.996094 10.074219 10.515625 11.894531 C 9.566406 13.054688 11.234375 14.730469 12.195312 13.546875 C 13.210938 12.304688 14.671875 12.582031 16.113281 12.582031 C 18.1875 12.582031 20.257812 12.582031 22.328125 12.582031 C 23.609375 12.582031 24.886719 12.582031 26.167969 12.582031 C 27.972656 12.582031 28.183594 14.257812 28.164062 15.800781 C 27.339844 15.800781 26.515625 15.800781 25.6875 15.800781 C 25.46875 15.800781 25.316406 15.894531 25.21875 16.035156 C 25.070312 16.199219 25.015625 16.4375 25.175781 16.6875 C 26.375 18.550781 27.578125 20.414062 28.78125 22.269531 C 29.023438 22.65625 29.554688 22.644531 29.800781 22.269531 C 31 20.40625 32.203125 18.542969 33.402344 16.683594 C 33.648438 16.304688 33.324219 15.800781 32.894531 15.800781 Z M 32.894531 15.800781 "/>
</g>
</svg>
