<?xml version="1.0" encoding="UTF-8"?>
<svg xmlns="http://www.w3.org/2000/svg" xmlns:xlink="http://www.w3.org/1999/xlink" width="32pt" height="31pt" viewBox="0 0 32 31" version="1.1">
<g id="surface1">
<path style=" stroke:none;fill-rule:nonzero;fill:rgb(100%,100%,100%);fill-opacity:1;" d="M 22.378906 20.074219 C 21.570312 21.046875 20.398438 20.828125 19.246094 20.828125 C 17.589844 20.828125 15.933594 20.828125 14.277344 20.828125 C 13.25 20.828125 12.226562 20.828125 11.203125 20.828125 C 9.761719 20.828125 9.589844 19.519531 9.605469 18.316406 C 10.257812 18.316406 10.914062 18.316406 11.566406 18.316406 C 11.742188 18.316406 11.863281 18.242188 11.941406 18.136719 C 12.0625 18.007812 12.105469 17.820312 11.976562 17.625 C 11.015625 16.175781 10.054688 14.722656 9.09375 13.269531 C 8.898438 12.972656 8.472656 12.976562 8.277344 13.273438 C 7.316406 14.726562 6.355469 16.175781 5.394531 17.628906 C 5.199219 17.921875 5.457031 18.316406 5.800781 18.316406 C 6.445312 18.316406 7.089844 18.316406 7.734375 18.316406 C 7.726562 19.730469 7.863281 21.167969 9.195312 22.039062 C 10.4375 22.851562 11.941406 22.664062 13.367188 22.664062 C 15.324219 22.664062 17.277344 22.664062 19.230469 22.664062 C 20.910156 22.664062 22.539062 22.78125 23.726562 21.367188 C 24.484375 20.457031 23.148438 19.15625 22.378906 20.074219 Z M 22.378906 20.074219 "/>
<path style=" stroke:none;fill-rule:nonzero;fill:rgb(100%,100%,100%);fill-opacity:1;" d="M 26.316406 12.324219 C 25.679688 12.324219 25.042969 12.324219 24.40625 12.324219 C 24.414062 10.910156 24.277344 9.476562 22.945312 8.605469 C 21.703125 7.792969 20.195312 7.976562 18.769531 7.976562 C 16.816406 7.976562 14.859375 7.976562 12.90625 7.976562 C 11.230469 7.976562 9.597656 7.859375 8.414062 9.277344 C 7.652344 10.183594 8.988281 11.488281 9.757812 10.566406 C 10.570312 9.597656 11.738281 9.8125 12.890625 9.8125 C 14.550781 9.8125 16.207031 9.8125 17.863281 9.8125 C 18.886719 9.8125 19.910156 9.8125 20.933594 9.8125 C 22.378906 9.8125 22.546875 11.121094 22.53125 12.324219 C 21.871094 12.324219 21.210938 12.324219 20.550781 12.324219 C 20.375 12.324219 20.253906 12.398438 20.175781 12.507812 C 20.054688 12.636719 20.011719 12.820312 20.140625 13.015625 C 21.101562 14.46875 22.0625 15.921875 23.023438 17.371094 C 23.21875 17.671875 23.644531 17.664062 23.839844 17.371094 C 24.800781 15.917969 25.761719 14.464844 26.722656 13.011719 C 26.917969 12.71875 26.660156 12.324219 26.316406 12.324219 Z M 26.316406 12.324219 "/>
</g>
</svg>
